<svg fill="#a8afff" xmlns="http://www.w3.org/2000/svg" xmlns:xlink="http://www.w3.org/1999/xlink" version="1.1" x="0px" y="0px" viewBox="0 0 100 100" enable-background="new 0 0 100 100" xml:space="preserve"><path fill="#a8afff" d="M50.685,28.604c-0.75-0.75-2.078-0.75-2.828,0L30.955,45.506c-0.781,0.781-0.781,2.048,0,2.829  c0.781,0.78,2.048,0.78,2.828,0L47,35.118V69c0,1.104,0.896,2,2,2s2-0.896,2-2V34.576l13.758,13.759  c0.391,0.39,0.902,0.585,1.414,0.585s1.024-0.195,1.414-0.585c0.781-0.781,0.781-2.048,0-2.829L50.685,28.604z"></path><path fill="#a8afff" d="M50,8C27.234,8,8,27.233,8,50s19.234,42,42,42s42-19.233,42-42S72.766,8,50,8z M50,88  c-20.598,0-38-17.402-38-38s17.402-38,38-38s38,17.402,38,38S70.598,88,50,88z"></path></svg>
